<svg id="Layer_1" data-name="Layer 1" xmlns="http://www.w3.org/2000/svg" viewBox="0 0 200 200.64"><defs><style>.cls-1{fill:#fff;}</style></defs><path d="M120,20A100,100,0,1,0,220,120,100,100,0,0,0,120,20Z" transform="translate(-20 -20)"/><path class="cls-1" d="M133.54,147.15h25.88l4.06-26.29H133.54V106.49c0-10.92,3.57-20.61,13.78-20.61h16.42V62.94a139.64,139.64,0,0,0-20.51-1.24c-24.07,0-38.18,12.71-38.18,41.67v17.49H80.3v26.29H105v72.26a101.2,101.2,0,0,0,15,1.23,100.81,100.81,0,0,0,13.54-1Z" transform="translate(-20 -20)"/></svg>