<?xml version="1.0" encoding="utf-8"?>
<!-- Generator: Adobe Illustrator 24.3.0, SVG Export Plug-In . SVG Version: 6.00 Build 0)  -->
<svg version="1.1" id="Layer_1" xmlns="http://www.w3.org/2000/svg" xmlns:xlink="http://www.w3.org/1999/xlink" x="0px" y="0px"
	 viewBox="0 0 500 500" style="enable-background:new 0 0 500 500;" xml:space="preserve">
<style type="text/css">
	.st0{fill:#FFFFFF;}
</style>
<path d="M158.6,26.6c-72.8,0-132,59.2-132,132v182.7c0,72.8,59.2,132,132,132h182.7c72.8,0,132-59.2,132-132V158.6
	c0-72.8-59.2-132-132-132H158.6z"/>
<path class="st0" d="M168.9,51.7c-64.6,0-117.2,52.5-117.2,117.2v162.2c0,64.6,52.5,117.2,117.2,117.2h162.2
	c64.6,0,117.2-52.5,117.2-117.2V168.9c0-64.6-52.5-117.2-117.2-117.2H168.9z"/>
<path d="M174.8,66.2c-59.9,0-108.6,48.7-108.6,108.6v150.4c0,59.9,48.7,108.6,108.6,108.6h150.4c59.9,0,108.6-48.7,108.6-108.6
	V174.8c0-59.9-48.7-108.6-108.6-108.6H174.8z"/>
<circle class="st0" cx="370" cy="130" r="20"/>
<circle class="st0" cx="250" cy="250" r="91.9"/>
<circle cx="250" cy="250" r="75.2"/>
</svg>
